<svg xmlns="http://www.w3.org/2000/svg" viewBox="0 0 400 400">
   <path fill="black" d="M200.000 205.000 L 200.000 400.000 210.200 400.000 L 220.400 400.000 220.400 330.200 L 220.400 260.400 293.373 260.400 C 362.528 260.400,366.357 260.437,366.548 261.100 C 372.646 282.253,380.000 354.841,380.000 393.882 L 380.000 400.000 390.060 400.000 L 400.119 400.000 399.880 381.900 C 399.105 323.167,390.017 260.540,374.557 207.400 C 338.857 84.689,273.624 10.624,200.700 10.006 C 200.034 10.000,200.000 19.550,200.000 205.000 M175.250 13.030 C 95.530 31.539,29.524 141.970,7.577 293.553 C 3.244 323.478,1.073 351.444,0.175 388.900 L -0.091 400.000 86.628 400.000 L 173.347 400.000 175.074 399.164 C 176.024 398.704,177.336 397.679,177.989 396.886 C 180.565 393.762,180.400 399.004,180.396 320.029 L 180.392 248.200 179.454 246.200 C 176.478 239.861,179.012 240.219,136.300 240.092 L 100.000 239.984 100.000 250.192 L 100.000 260.400 130.000 260.400 L 160.000 260.400 160.000 320.200 L 160.000 380.000 90.345 380.000 L 20.690 380.000 20.960 372.300 C 26.993 200.134,94.349 54.679,177.900 33.385 L 180.800 32.646 180.800 22.323 C 180.800 12.746,180.749 12.002,180.100 12.033 C 179.715 12.051,177.532 12.500,175.250 13.030 M227.800 35.003 C 280.884 52.364,328.189 119.092,355.543 215.200 C 357.421 221.799,362.000 239.209,362.000 239.751 C 362.000 239.888,330.140 240.000,291.200 240.000 L 220.400 240.000 220.400 136.392 L 220.400 32.785 221.500 33.044 C 222.105 33.186,224.940 34.068,227.800 35.003" />
<svg width="400" height="400"> 
    <image href="sbla362.svg" width="400" height="400"/>
</svg>
</svg>
